<?xml version="1.0" encoding="UTF-8"?>
<svg id="_圖層_2" data-name="圖層 2" xmlns="http://www.w3.org/2000/svg" viewBox="0 0 646.37 665.32">
  <defs>
    <style>
      .cls-1 {
        fill: #fff;
      }
    </style>
  </defs>
  <g id="_圖層_1-2" data-name="圖層 1">
    <path class="cls-1" d="M644.17,169.3c-1.06-12.39-6.46-21.67-9.67-26.17-3.48-4.88-7.82-9.04-12.78-12.29-4.11-3.27-8.79-5.9-13.93-7.72l-.2-.07c-1.94-.69-5.48-1.95-10.13-2.82-3.22-3.54-7.34-7.01-12.57-9.89-.58-.41-1.17-.81-1.77-1.19-1.48-2.08-3.13-4.06-4.96-5.92l-5.97-6.07c-1.91-1.94-3.96-3.7-6.14-5.27-1.5-1.25-3.08-2.41-4.74-3.48-1.35-.87-2.74-1.66-4.16-2.38-.14-.14-.27-.29-.41-.42l-.18-.18c-4.61-4.63-10.06-8.22-15.98-10.63-2.75-3.16-5.95-6-9.55-8.41-.15-.1-.31-.2-.46-.31-3.81-3.12-8.04-5.6-12.52-7.39-6.37-4.32-13.7-7.07-21.4-7.98l-7.45-.88c-5.43-3.9-11.62-6.63-18.16-8.02-.6-.22-1.21-.43-1.81-.63-3.55-2.01-7.55-3.76-12.07-5.1-2.97-1.6-6.07-2.87-9.23-3.8-3.91-1.99-8.12-3.45-12.52-4.31-2.38-.87-4.82-1.54-7.3-2.02-.34-.1-.7-.2-1.06-.3-.42-.26-.84-.51-1.27-.75-6.01-5.43-13.41-9.37-21.64-11.23-2.33-.53-4.68-.88-7.02-1.06-1.62-.81-3.29-1.52-5-2.14-6.65-4.52-14.39-7.34-22.53-8.11-.62-.12-1.25-.23-1.87-.33-2.9-.62-5.84-.96-8.79-1.04-.25-.04-.48-.08-.69-.11-2.95-.55-5.91-.82-8.85-.82-.86,0-1.72,.02-2.58,.07-3.27,.05-6.54,.43-9.75,1.14-2.35,.1-4.69,.37-7,.82-1.2,.08-2.38,.19-3.57,.34-1.74,.22-4.29,.55-7.25,1.11-1.73-.19-3.47-.28-5.21-.28-4.85,0-9.7,.73-14.38,2.2-4.38-1.3-8.98-2-13.68-2-.13,0-.26,0-.39,0-5.74-2.3-11.83-3.46-17.94-3.46-3.57,0-7.14,.4-10.65,1.19-5.74,.2-11.46,1.43-16.87,3.69-2.08,.48-4.12,1.09-6.11,1.83-2.26,.57-4.47,1.3-6.63,2.19-.95,.33-1.88,.7-2.8,1.09-1.11-.08-2.21-.11-3.31-.11-11.85,0-23.12,4.38-31.78,11.98-.11,0-.21,0-.32,0-3.23,0-6.48,.32-9.7,.99l-1.61,.33c-18.11,3.72-32.09,17.32-36.78,34.48-3.7,5.8-6.19,12.42-7.14,19.49-.51,3.78-.57,7.55-.2,11.24-1.31,4.23-2.02,8.59-2.13,12.97-.6,1.55-1.12,3.12-1.56,4.7-1.81,1.7-3.53,3.52-5.14,5.46-4.83,4.36-8.67,9.61-11.36,15.38-.59,.68-1.15,1.39-1.7,2.11-3.68,4.44-6.53,9.49-8.42,14.91-13.04,13.41-17.5,33.72-10.01,51.93,.12,.29,.24,.57,.36,.85-.06,.4-.12,.81-.18,1.21-.35,.92-.67,1.85-.96,2.8l-.97,3.13c-.86,1.81-1.61,3.69-2.24,5.62-3.3,10.08-3.12,20.72,.13,30.37,.3,1.76,.69,3.51,1.19,5.26l1.62,5.69c1.82,6.36,4.91,12.23,9.02,17.27,.02,.39,.05,.79,.08,1.18-5.37,7.44-8.55,16.33-9.05,25.64-.22,2.72-.26,5.37-.14,7.97-.8,1.73-1.49,3.5-2.08,5.3-2.56,2.42-4.89,5.13-6.93,8.09-3.41,4.93-5.8,10.37-7.17,16.01-2.84,5.2-4.74,10.96-5.5,17.04-1.41,11.17,1.15,22.25,6.89,31.48,0,.09,0,.18-.01,.28-.32,1.79-.54,3.48-.68,5.03-.03,.31-.05,.63-.08,.94-.37,1.02-.7,2.05-1,3.1-2.11,3.35-3.8,6.96-5.03,10.74-.63,1.3-1.2,2.61-1.7,3.95-1.14,1.86-2.15,3.78-3.02,5.76-2.9,4-5.2,8.48-6.76,13.3-.05,.1-.09,.2-.14,.29-1.21,1.46-2.35,2.95-3.39,4.46-.74,.77-1.43,1.53-2.09,2.28-1.1,.79-2.16,1.64-3.18,2.52-6.18,2.73-11.77,6.75-16.36,11.84-1.65,.74-3.26,1.58-4.82,2.51-18.48,9-25.16,24.24-27.54,32.94-2.54,9.31-2.18,19.01,.78,27.91,1.01,11.22,5.91,21.81,13.98,29.85l.18,.18c.61,.62,1.24,1.21,1.88,1.79,.42,.46,.83,.93,1.28,1.37l1.04,1.04c2.12,2.12,4.39,4.01,6.79,5.66,2.28,3.63,5.05,6.97,8.24,9.9,0,0,0,.01,0,.02,1.98,11.17,7.85,21.27,16.49,28.52,.1,.1,1.9,1.82,1.9,1.82,7.49,7.17,17.04,11.68,27.19,12.98,1.53,.96,3.12,1.83,4.77,2.62l2.64,1.26c6.6,3.15,13.7,4.71,20.77,4.71,.94,0,1.88-.03,2.81-.08,2.43,.75,4.91,1.3,7.41,1.65,.7,.26,1.41,.51,2.12,.74,2.79,.91,5.64,1.54,8.5,1.92,4.72,2.42,9.83,4.05,15.11,4.81,4.15,1.78,8.61,3.06,13.31,3.78,2.48,1.11,5.08,2.02,7.76,2.71,1.22,.31,2.45,.58,3.68,.79,5.2,1.89,10.71,2.88,16.3,2.9,6.95,3.83,14.91,5.98,23.26,5.98h1.96c7.59,4.91,16.57,7.66,26.05,7.66,.64,0,1.29-.01,1.94-.04,1.92-.05,3.74-.19,5.44-.41,.81,.04,1.63,.06,2.44,.06,.21,0,.43,0,.64,0,1.77,.72,3.58,1.33,5.4,1.82,1.24,.55,2.58,1.1,4.04,1.62,8.96,4.47,17.81,5.66,24.27,5.76,5.14,1.82,10.59,2.77,16.11,2.77,1.42,0,2.85-.06,4.28-.19,1.44,.23,2.91,.47,4.41,.7,1.45,.53,2.96,1.02,4.55,1.45,6.01,2.58,12.48,3.9,19.01,3.9,1.13,0,2.26-.04,3.4-.12,.76,.03,1.53,.05,2.29,.05,4.79,0,9.51-.64,14.07-1.92l1.08-.3c2.68-.74,6.41-1.77,10.65-3.41,.11,.02,.22,.03,.33,.05,.96,.23,1.93,.44,2.9,.63l1.03,.4c7.81,5.04,16.93,7.72,26.21,7.72,3.09,0,6.19-.3,9.27-.9,.24-.02,.47-.03,.71-.05,.47,.03,.95,.05,1.44,.06,2.19,.45,4.4,.74,6.61,.87,4,1.06,8.15,1.62,12.37,1.62,2.24,0,4.5-.16,6.76-.48,13.95-1.97,26.08-9.89,33.56-21.3,5.69-5.4,10.38-12.12,13.79-19.93,1.42-3.27,2.46-6.62,3.12-10.01,1.13-2.58,2.02-5.24,2.67-7.95,2.32-3,4.25-6.24,5.79-9.64,.03-.03,.05-.06,.08-.09,.94-.86,1.79-1.69,2.52-2.46,5.09-4.43,9.25-9.92,12.2-16.18,2.79-4.99,4.69-10.48,5.57-16.24,.05-.34,.1-.69,.15-1.03,.26-1.15,.48-2.3,.66-3.46,.35-.7,.69-1.41,1-2.13,1.09-1.55,2.09-3.16,2.99-4.82,1.81-2.79,3.44-5.87,4.84-9.29,6.07-6.65,10.32-15.04,11.9-24.41,.43-1,.82-2.02,1.18-3.05,.01-.02,.02-.04,.04-.06,2-2.49,3.76-5.17,5.25-8.01l3.54-6.01c.81-1.37,1.54-2.77,2.21-4.19,2.97-5.21,4.97-10.97,5.83-17.02,.14-.63,.25-1.24,.37-1.85,.25,.25,.5,.51,.75,.76h2.15c.57-1.15,1.13-2.29,1.9-3.87-1.46-.62-2.73-1.16-4-1.7,0,.02-.01,.03-.02,.05,.24-1.92,.39-3.79,.44-5.61,.24-1.11,.44-2.22,.6-3.35,.2-1.34,.34-2.68,.42-4.01,.58-1.29,1.11-2.61,1.58-3.95,1.13-2.6,2.01-5.13,2.71-7.6,4.68-1.97,9.1-4.69,13.04-8.14,13.33-11.66,19.19-29.69,15.26-46.96l-.46-2.03c-1.99-8.78-6.31-16.52-12.19-22.66l3.07-5.22c2.52-4.28,4.31-8.82,5.4-13.48,1.59-2.51,2.96-5.19,4.08-8.02,.98-2.46,1.74-4.97,2.29-7.51,1.13-3.53,1.85-7.21,2.14-10.95,.79-1.49,1.45-2.93,2.01-4.27,4.42-4.85,7.87-10.6,10.03-16.93,5.27-6.04,8.93-13.28,10.68-21.02,3.19-3.97,5.77-8.45,7.58-13.31,6.75-7.08,11.31-16.17,12.79-26.19,.38-2.55,.66-5.76,.59-9.44,.56-1.85,1-3.74,1.33-5.64,4.12-5.71,6.98-12.33,8.29-19.42,.04-.09,.08-.19,.12-.28,2.96-6,4.68-12.62,4.94-19.45,.21-5.54-.55-11.01-2.16-16.2Zm-265.96,131.8c-.67,.67-1.29,1.29-1.48,1.48,.07,1.61,.61,3.12,.07,3.93-.78,1.19-.47,2.29-.63,3.44,.38,.22,.77,.43,1.44,.81-2.3,2.2-4.39,4.2-6.38,6.1,1.02,.69,2.25,1.52,3.51,2.37,.22-.2,.58-.53,1.66-1.52-.6,1.95-.95,3.09-1.3,4.22,.36,.39,.7,.77,.97,1.07-2.4,2.1-4.81,4.2-7.42,6.48,.28,.96,.59,2.04,.93,3.23-.3,.11-.91,.32-1.52,.53-.34,.5,.81,4.29,1.82,6.04,.13-.38,.38-.67,.62-.95,.11,.11,.22,.22,.33,.33-.29,.24-.57,.49-.86,.73-.07-.07-.14-.14-.2-.2,.23,.74,.14,1.75,.51,1.97,2.48,1.46,3.64,4.17,5.8,5.87,.06,1.21,.13,2.38,.19,3.66,1.33,.07,2.5,.13,4.18,.22-.35,.98-.64,1.79-.96,2.69,.1,.11,.24,.27,.32,.35h0c.07,.08,.05,.06,0,0-.37,.92-.71,1.75-1.25,3.09-1.12-1.72-1.66-2.64-2.29-3.5-.69-.94-1.46-1.83-2.2-2.74-1.58,.41-3.16,.82-5.16,1.34,.53,2.4-2.91,4.8-.12,7.6-.64,.8-2.24,.35-2.31,2.15-.03,.71-1.7,1.36-2.81,2.17,.94,.61,1.97,1.28,3.07,1.98,.35,1.02-1.37,1.91-.22,3.29,.33,.4-.7,1.92-1.19,3.15,.98,.2,1.46,.3,2.35,.48,.05,.99,.1,2.14,.18,3.72-1.93,.58-3.91,1.18-5.43,1.64-1.64,1.46-3.05,2.71-4.66,4.14-.66,1.66-1.42,3.61-2.26,5.74,.21,.37,.59,1.04,1.04,1.84-1.57,.71-2.89,1.31-4.22,1.91-.44,1.01-.89,2.05-1.36,3.14,.32,.39,.63,.78,1.01,1.24-1.57,1.38-1.02,4.4-3.98,5v6.71c-1.41,1.05-2.74,2.04-4.25,3.16v5.17c-1.01,.64-2.1,1.33-3.41,2.17,.39,.66,.79,1.35,1.44,2.47-1.2,1.61-2.35,3.63-3.95,5.19-1.81,1.76-1.4,4.37-3.13,6.42-.24-.69-.42-1.22-.69-2h-4.81c1.56,.66,2.17,.92,2.91,1.23-.31,.38-.59,.73-.92,1.14,.28,.33,.6,.69,1.18,1.36-2.8,.2-5.48,.42-7.37,2.7,.55,1.07,1.12,2.17,1.72,3.34-.08,.1-.26,.35-.76,1.02,.26,.29,.8,.64,.92,1.09,.17,.65,.04,1.38,.04,2.05-2.08,1.33-4.29,1.92-7.09,1.42-.88,1.09-1.85,2.3-2.99,3.73-2.21-1.78-4.36-2.16-6.64-.31-2.88-2.44-5.43-.82-7.96,.84-.62-.62-1.23-1.23-1.94-1.94-.34,.27-.69,.56-1.1,.89-.33-.28-.69-.59-1.05-.91-.35,.31-.72,.64-1.26,1.13-.19-1.08-.37-2.04-.54-2.98-.63-.23-1.24-.44-1.81-.64-.06-.93-.12-1.76-.19-2.73-.89,.43-1.56,.76-2.5,1.21-.27-.69-.49-1.25-.75-1.9-.09-.02-.39-.22-.57-.14-1.98,.9-3.7,3.17-6.21,.82-.36-.33-1.65,.06-2.35,.43-2.1,1.1-3.85,.97-5.27-1.06,.26-.26,.51-.51,.83-.83-.46-.92-.93-1.87-1.45-2.92-1.34,1.04-3.01,.16-4.37,.95-.22-.61-.44-1.21-.65-1.8-.75,.43-1.42,.81-2.28,1.29-.3-.88-.5-1.48-.77-2.27h-4.41c-1.1-2.35-3.03-3.46-5.09-4.31-2.36-.98-2.39-.91-2.94-3.81-.87-.43-1.73-.85-2.62-1.29-.28,.25-.66,.59-1.31,1.16-1.1-.94-2.2-1.88-3.14-2.68,.95-1.41,1.78-2.64,2.75-4.09h2.27c-.4-2.05-.76-3.92-1.28-6.59,1.09,.86,1.43,1.14,2.01,1.59,.89-2.99,1.76-5.92,2.71-9.12,1.06-.48,2.37-1.08,3.36-1.53,.82-1.67,1.54-3.12,2.74-5.58-.09-.52-.38-2.15-.61-3.78-.05-.35,.19-.74,.18-1.11-.06-2.09,2.38-3.72,1.04-6.05-.86-1.49,.72-3.32-.59-4.84-.18-.21,.2-.91,.31-1.38,.37-1.64,.06-3.51,1.8-4.88-.52-1.98,.91-4.32-1.06-6.26,.31-.34,.65-.71,.98-1.08-.24-.23-.48-.48-.78-.78,.05-.21,.04-.51,.19-.68,1.34-1.49,3.36-2.56,2.48-5.72,.94,.7,1.26,.94,1.79,1.33,2.26-1.7,2.9-4.1,2.56-6.95,.63-.14,1.11-.25,1.97-.44,.36-1.3,.34-3.33,1.35-4.27,1.15-1.07,2.1-2.21,2.86-3.38-.35-.68-.71-1.38-1.21-2.37,1.34-.21,2.3-.36,3.64-.57-.32-.85-.58-1.55-.84-2.23,.3-1.11,.62-2.32,.94-3.53,.6-.21,1.21-.43,2-.7-.79-.67-1.45-1.22-2.09-1.76,.12-.39,.13-.7,.29-.86,3.56-3.66,4.02-5.63,4.16-10.79,.05-1.64,.61-3.45,.57-5.21-.02-.78-.4-1.54-.68-2.53,1.21-2.62,1.54-6.16,4.86-7.99-.89-1.17-1.74-2.29,.29-3.49-.82-.24-1.39-.4-2.32-.67,.28-.4,.57-.68,.69-1.01,1.47-3.97,2.65-8.02,3.5-12.17,.14-.7,.57-1.34,.87-2.03-.61-.16-1.08-.28-1.57-.41,0-.24-.11-.58,.02-.72,1.48-1.76,1.99-3.8,1.68-5.93,1.96-1.53,3.77-2.94,5.59-4.36-.64-1.1-1.04-1.8-1.63-2.81,1.49-1.07,2.94-2.1,4.78-3.41-1.4-.29-2.42-.5-3.76-.78,1.96-2.77,1.19-5.72,1.36-8.56,.98-.56,1.97-1.13,3-1.73v-7.67c2.71-1.14,2.16-4.41,4.15-6.47,1.73-1.8,2.38-5.27,4.7-6.17,2.55-.99,4.48-2.68,6.65-3.67-.37-1.75-.69-3.3-1.02-4.89-.5-.18-1.11-.4-1.81-.66,.39-.45,.71-.81,1.02-1.17-.31-.35-.64-.72-.74-.84,.4-1.24,.74-2.32,1.12-3.52,.78-.47,1.77-1.05,2.87-1.71-.42-.51-.71-.86-1.16-1.41,1.07-.68,2.14-1.37,3.39-2.17v-2.81c1.19,.68,2,1.15,2.98,1.71-.38,.49-.65,.83-1.15,1.48,.47,.46,1,.98,1.97,1.92v-3.06c1.91-.96,3.64-1.83,5.37-2.7,1.66,.31,2.93,2.26,5.22,1.32,.46,.76,1.04,1.74,1.82,3.03,.2-.74,.35-1.29,.61-2.27,1.52,.95,2.95,1.84,4.8,2.99,1.11,.17,2.75,.59,4.39,.63,1.26,.03,2.44,.22,3.68,.63,.35-.74,.69-1.46,1.05-2.23,2.16,.48,4.24,2.64,6.5-.16,.17,.85,.27,1.33,.38,1.85,2.5,.94,5.07,1.9,8.01,3.01,.35,.7,.92,1.85,1.49,3,1.22,1.01,2.76,1.86,3.64,3.16,.59,.87,1.8,2.17,.6,3.57,.97,2.73,1.94,5.46,2.99,8.39-.99,.18-1.95,.35-3.17,.57,.35,1.41,.97,2.78,.95,4.14-.02,1.17-.79,2.33-1.29,3.68,.99,.21,1.47,.31,2.12,.44-.66,2.19-1.34,4.41-2.08,6.85,1.25,.22,2.21,.39,3.52,.62-.47,3.26,.72,6.63-1.11,10.38,.64,.37,1.55,.89,2.41,1.38-.65,1.15-1.04,1.85-1.46,2.58,.61,1.19,1.21,2.34,1.9,3.69-.2,.46-.73,1.14-.71,1.81,.02,.88,.98,2.17,.67,2.53-.85,.99-.48,1.39,.31,1.85-.44,.57-.83,1.09-1.31,1.72,1.42,1.7,2.71,3.25,4.55,5.47,.32,1.92-1.51,3.69-3.16,5.52,.31,.36,.62,.72,.92,1.08Z"/>
  </g>
</svg>