<?xml version="1.0" encoding="UTF-8"?>
<svg id="_圖層_2" data-name="圖層 2" xmlns="http://www.w3.org/2000/svg" viewBox="0 0 625.24 717.43">
<style>
* {
    fill: white;
}
@media (prefers-color-scheme: light) {
  * {
    fill: #151515 !important;
  }
}
</style>
  <defs>
    <style>
      .cls-1 {
        fill: #fff;
      }
    </style>
  </defs>
  <g id="_圖層_1-2" data-name="圖層 1">
    <g>
      <path class="cls-1" d="M584.88,138.58c-.2-2.93-.74-6.04-1.76-9.32-3.08-10.51-10.5-19.22-20.41-23.93-2.21-2.43-4.72-4.57-7.47-6.4-3.13-3.42-6.93-6.31-11.31-8.48l-3.54-1.75c-.08-.04-.15-.07-.23-.11-2.06-2.69-4.47-5.13-7.21-7.22l-.49-.38c-4.34-3.27-9.27-5.54-14.45-6.75-1.19-1.29-2.46-2.5-3.82-3.63-2.04-2.56-4.42-4.86-7.06-6.84-2.3-2.51-4.91-4.78-7.8-6.75-1.62-1.47-3.34-2.8-5.15-3.96-1.48-2.03-3.16-3.91-5-5.61-1.88-2.18-4-4.14-6.33-5.85-3.93-5.29-9.21-9.56-15.43-12.3l-4.74-2.08c-6.7-2.94-13.87-3.84-20.74-2.89s-13.08,3.59-18.48,7.81c-1.37,.58-2.7,1.23-3.98,1.96-.19,.09-.37,.17-.55,.26-1.45,.04-2.9,.15-4.33,.35-9.48,1.31-18.43,6.13-24.78,14.04-6.97,2.78-13.12,7.6-17.52,14.04-.48,.58-.94,1.16-1.38,1.77-.11,.1-.22,.21-.32,.31-5.14,3.38-9.41,7.95-12.44,13.34,0,0-2.79,4.96-2.84,5.06-.46,.38-.92,.77-1.37,1.18-4.37,1.54-9.11,4.06-13.66,8.13-3.3,1.62-6.37,3.72-9.09,6.23l-6.21,5.72c-1.72,1.58-3.27,3.29-4.65,5.12-.16,.12-.32,.23-.48,.35-1.73,.77-3.39,1.67-4.98,2.68-3.21,1.28-6.26,2.99-9.05,5.11-4.9,3.49-8.5,7.36-11.14,11.27-1.26,1.54-2.3,3-3.14,4.31-1.17,1.21-2.26,2.49-3.27,3.83-1.77,1.61-3.4,3.39-4.85,5.32l-1.89,2.52c-1.81,1.23-3.5,2.6-5.06,4.1-4.15,1.62-7.98,3.95-11.33,6.89-1.19-2.21-2.6-4.29-4.2-6.22-.25-.57-.53-1.15-.82-1.73-1.2-5.72-3.71-11.14-7.38-15.83-1.49-1.95-3.06-3.66-4.66-5.14-.03-1.21-.11-2.41-.25-3.62-.08-1.44-.25-2.88-.49-4.3-.15-2.35-.51-4.69-1.08-6.98-.46-3.98-1.54-7.91-3.26-11.65l-.15-.32c-.64-2.9-1.61-5.73-2.92-8.44-.02-.08-.05-.16-.07-.25,.97-5.61,.7-11.43-.89-17.05-.54-4.61-1.91-9.19-4.18-13.49-.49-1.01-1.37-2.78-2.74-4.93-.7-3.18-1.81-6.28-3.31-9.23-.46-1.36-.99-2.69-1.59-3.98,.58-7.66-1.15-15.4-5.06-22.17-5.49-9.51-14.79-16.22-25.54-18.45l-7.15-1.48c-4.32-.89-8.74-1.04-13.07-.44-.21,.03-.42,.06-.63,.09-1.72,.03-3.46,.17-5.21,.41-3.23,.45-6.42,1.26-9.47,2.39l-.13,.02c-2.94,.41-5.64,.99-8.28,1.78-3.02,.91-5.89,2.18-8.57,3.77-1.64,.23-3.28,.56-4.9,1.01-6.86,1.88-12.91,5.58-17.64,10.53-1.43,.36-2.84,.8-4.23,1.32-1.54,.37-3.06,.85-4.56,1.42-4.09,1.55-7.8,3.66-11.12,6.31-8.45,1.98-16.03,6.78-21.45,13.65-1.95,2.08-3.65,4.35-5.08,6.77-1.69,.54-3.35,1.2-4.96,1.97-.25,.08-.5,.17-.75,.25-6.14,1.27-11.96,4.03-16.88,8.12-5.41,2.95-10.14,7.21-13.68,12.57l-1.1,1.66c-.51,.77-.99,1.55-1.44,2.35-4.59,3.01-8.47,6.95-11.39,11.54-.59,.7-1.16,1.42-1.7,2.16-2.31,1.6-4.45,3.46-6.38,5.55-1.8,1.31-3.5,2.74-5.11,4.31C2.86,108.84-1.31,121.02,.36,133.12l1.52,10.99c.36,2.64,.99,5.18,1.84,7.59,.37,2.69,.75,5.46,1.18,8.29,.11,.72,.23,1.4,.36,2.06,.26,3.87,1.08,7.34,2.14,10.34,.54,3.13,1.13,6,1.7,8.78,.83,4.05,1.61,7.87,1.84,10.71,.26,3.28,.94,6.5,2.01,9.6,.01,.1,.02,.2,.03,.29,.32,3.15,.81,7.91,2.38,13.36,.2,.74,.5,2.97,.72,4.6,.54,3.99,1.22,8.95,2.76,14.53,.16,.61,.44,2.47,.64,3.82,.31,2.05,.69,4.59,1.25,7.36l.54,2.63c.71,3.45,1.38,6.72,1.89,9.75,.07,.44,.2,1.69,.29,2.6,.41,4.05,.97,9.6,2.91,15.96,.1,.33,.21,.88,.32,1.55-.72,2.74-1.14,5.47-1.27,8.15-.96,6.69-.63,16.56,5.9,26.71,.55,.88,1.13,1.73,1.74,2.56,.2,.71,.41,1.44,.65,2.19,.09,.54,.21,1.45,.3,2.16,.28,2.13,.64,4.79,1.27,7.84,.22,1.05,.44,2.1,.66,3.15,.61,2.87,1.18,5.59,1.58,7.96,.05,.33,.14,1.28,.21,1.97,.36,3.68,.89,9.18,2.84,15.43,.1,.62,.24,1.78,.34,2.66,.43,3.64,1.03,8.62,2.64,14.26,.65,2.26,1.11,5.87,1.59,9.68,.18,1.41,.36,2.82,.55,4.22,.18,1.29,.41,2.57,.71,3.82,.34,2.26,.89,4.48,1.62,6.63l.45,3.29c.18,2.02,.56,6.1,2.15,11,.19,.83,.46,2.98,.65,4.57,.51,4.09,1.13,9.17,2.66,14.89,.09,.5,.26,1.67,.37,2.54,.48,3.51,1.14,8.31,2.81,13.78,.22,.78,.57,3.15,.82,4.88,.26,1.75,.55,3.74,.92,5.85,0,.06,.02,.12,.03,.18,.29,3.59,1.05,6.81,2.04,9.63,.14,.86,.31,1.81,.53,2.82,.21,.95,.42,1.91,.64,2.86,.5,2.24,.98,4.36,1.28,6.1,.23,1.32,.45,3,.69,4.78,.22,1.64,.46,3.51,.76,5.42,.06,.41,.13,.81,.2,1.2,.25,3.52,.95,6.93,2.09,10.2,.07,.58,.16,1.21,.27,1.88v.03c.2,2.85,.58,8.12,2.71,14.27,.17,1.23,.4,2.73,.75,4.39,.05,.34,.14,1.09,.21,1.64,.17,1.37,.38,3.08,.7,4.98,.04,.26,.09,.52,.14,.77,.23,3.4,.9,6.7,1.99,9.9,.27,2.1,.71,4.84,1.58,7.97,.93,3.33,1.53,7.94,2.17,12.83,.48,3.67,1.02,7.82,1.79,12.15,.44,2.5,1.02,4.64,1.49,6.23,.17,1.77,.42,3.5,.76,5.19,.28,3.43,.97,6.87,2.08,10.25,.07,.5,.15,1.18,.22,1.73,.43,3.5,1.02,8.28,2.68,13.8,.13,.66,.33,2.24,.48,3.41,.44,3.52,1.05,8.34,2.48,13.66,.17,.64,.44,2.56,.65,3.95,.56,3.79,1.25,8.5,2.79,13.85,.14,.61,.38,2.29,.56,3.52,.32,2.27,.73,5.11,1.38,8.24,.74,3.58,1.48,7.16,2.21,10.75l.97,4.72c1.88,9.15,7.03,17.31,14.47,22.96l1.08,.82c8.24,6.25,18.53,8.84,28.54,7.46,.33-.05,.65-.09,.98-.15,.49-.05,1.02-.11,1.58-.19,2.88-.4,5.67-1.07,8.34-2.01,1.36-.09,2.74-.23,4.11-.42,4.25-.59,7.81-1.55,10.17-2.18,.37-.1,.83-.22,1.17-.31,.68-.08,1.36-.15,2.05-.21,1.66-.17,3.54-.36,5.63-.65,3.95-.55,7.51-1.29,10.86-2.28,.72-.21,2.95-.55,4.58-.8,.65-.1,1.3-.2,1.95-.3,.97-.15,1.93-.29,2.9-.43,.79-.11,4.18-.56,5.07-.69,1.2-.17,2.41-.34,3.61-.52,1.56-.24,2.95-.54,4.2-.85h.08c2.13-.31,4.06-.74,5.77-1.22,1.27-.18,2.31-.37,3-.49l.15-.03,3.89-.54c.88-.06,2.26-.17,3.88-.39,3.3-.46,6.48-1.25,9.5-2.37,.36-.03,.76-.07,1.13-.1,1.31-.12,2.63-.24,3.93-.39,.43-.05,.86-.1,1.29-.16,4.27-.59,7.85-1.55,10.22-2.19,.34-.09,.75-.2,1.07-.29,.38-.03,.75-.07,1.13-.1,1.79-.15,4.02-.35,6.5-.69,3.9-.54,7.46-1.32,10.85-2.39,.1-.02,.23-.03,.39-.06,.68-.09,1.36-.17,2.04-.25,1.12-.14,2.24-.27,3.36-.43,2.54-.35,6.4-.96,10.73-2.21,.56-.12,1.92-.31,2.93-.46,3.25-.47,7.7-1.11,12.67-2.53,.46-.13,.94-.25,1.41-.37,2.38-.61,5.72-1.46,9.56-2.95,.27-.03,.55-.07,.84-.11,11.65-1.61,21.93-8.45,27.9-18.57,2.03-3.43,3.48-7.11,4.36-10.91,1.07-2.93,1.79-6.02,2.12-9.21,.85-8.2-.96-16.24-4.87-23.1-.32-3.09-1.01-6.14-2.07-9.1,4.04,3.9,8.78,7.09,14.05,9.43,1.97,1.8,3.7,3.08,4.8,3.89l.26,.2c2.52,2.04,5.29,3.75,8.23,5.1,1.03,2.46,2.31,4.82,3.83,7.03,1.26,6.31,4.09,12.24,8.28,17.22,1.01,1.86,2.16,3.61,3.44,5.25,2.61,3.69,5.82,6.84,9.45,9.36,.48,5.79,2.23,11.45,5.21,16.54,1.11,2.09,2.91,5.04,5.61,8.07,.46,.67,.93,1.32,1.42,1.95,1.19,1.82,2.53,3.54,4,5.14,1.55,2.65,3.41,5.1,5.52,7.29,2.19,3,4.81,5.82,7.85,8.47,5.6,6.48,13.26,10.98,21.83,12.63,4.72,.91,9.52,1.05,14.25,.39,5.54-.77,12.99-2.93,20.39-8.48,7.37-3.19,13.61-8.63,17.78-15.62,10.52-3.5,19.42-11.46,23.74-22.5,.39-.98,.72-1.93,1.02-2.83,1.55-1.35,2.99-2.82,4.3-4.39,3.47-2.5,6.52-5.59,9.02-9.15,2.35-2.15,4.4-4.57,6.13-7.19,4.8-2.29,9.12-5.58,12.64-9.69,.08-.06,.16-.12,.24-.18,5.94-2.63,11.18-6.75,15.15-12.02,.71-.79,1.39-1.6,2.04-2.44,2.69-1.56,5.19-3.44,7.43-5.61,.82-.48,1.65-1,2.47-1.57,2.02-1.38,3.81-2.85,5.4-4.37,3.42-2.34,6.64-5.23,9.63-8.65l.06-.07,.31-.33c2.59-2.74,7.96-8.44,11.54-17.62,5.21-13.37,2.55-28.53-6.89-39.33-.77-.88-1.55-1.76-2.34-2.66-1.67-1.9-3.24-3.69-4.73-5.44-.83-.98-1.67-1.94-2.52-2.9-.69-.79-1.6-1.82-2.06-2.4-1.44-2.33-4.43-6.69-9.48-10.67-.53-.57-1.56-1.79-2.33-2.7-.74-.88-1.48-1.76-2.23-2.64-2.63-3.05-5.23-5.77-7.52-8.17-2.27-2.38-4.42-4.63-5.88-6.45-2.13-2.67-4.14-4.82-5.76-6.55-.63-.67-1.48-1.59-1.8-1.97-2.62-3.51-5.28-6.02-7.15-7.63-4.1-4.83-7.93-8.91-11.78-12.55-.62-.81-1.39-1.75-2.29-2.76-2.01-2.25-3.82-4.15-5.61-5.9-.17-.22-.33-.44-.49-.66-1.76-2.33-4.41-5.85-8.3-9.49-.33-.34-1.09-1.23-1.66-1.89-1.61-1.87-3.62-4.19-6.19-6.71l-.13-.12c-1.26-1.23-2.97-2.9-3.56-3.62-2.89-4.2-5.86-7.22-7.65-9.03-.1-.1-.2-.2-.3-.3-1.89-2.43-3.66-4.33-4.88-5.64-.16-.17-.32-.34-.48-.51-2.82-3.82-5.62-6.41-7.22-7.87-.26-.29-.58-.66-.86-.99-.41-.47-.82-.94-1.24-1.42l-.24-.3c-1.26-1.56-3.29-4.07-6.25-6.78-.99-1.23-2.27-2.73-3.89-4.33-2.6-3.3-5.08-5.74-6.74-7.36-.26-.25-.52-.5-.78-.76-2.23-2.54-4.48-5.07-6.74-7.59-2-2.24-4-4.48-5.99-6.74-2.69-3.06-5.4-6.1-8.12-9.14-1.32-1.47-2.63-2.95-3.94-4.42-1-1.13-2.01-2.24-3.03-3.36-1.85-2.04-3.61-3.97-4.95-5.63-3.1-3.82-6.21-6.83-8.48-9.03-.74-.72-1.74-1.69-2.16-2.14-.26-.34-.52-.67-.79-1-2.14-2.91-4.24-5.26-5.89-7.06,1.04-.76,2.05-1.57,3.01-2.43,2.89-2.11,6.2-5.05,9.25-9.25,.16-.22,.32-.45,.48-.67,1.57-.57,3.11-1.25,4.6-2.04,1.5-.54,2.98-1.17,4.41-1.91,3.74-1.75,7.08-3.87,10.01-6.34,.43-.26,.87-.53,1.29-.8,4.85-1.46,9.38-3.87,13.31-7.09,9.67-3.81,16.28-10.16,20.43-17.22,.88-.9,1.72-1.83,2.51-2.81,.76-.53,1.42-1.01,1.96-1.4l.63-.46c.77-.55,1.51-1.12,2.22-1.71,.52-.38,1.04-.77,1.54-1.17,1.02-.41,2.2-.9,3.46-1.48,3.56-1.62,6.85-3.77,9.76-6.38l.72-.64c.78-.69,1.62-1.45,2.46-2.22,.81-.74,1.61-1.48,2.42-2.24l.92-.86c4.43-4.12,7.76-9.16,9.83-14.66,1.04-2.04,1.9-4.18,2.57-6.39,2.64,.19,5.34,.12,8.07-.26l1.3-.18c18.08-2.5,31.47-17.16,33.09-34.58,6.42,2.92,13.71,4.13,21.21,3.1l1.3-.18c21.08-2.91,35.8-22.35,32.89-43.43l-.31-2.21c-2.74-19.82-20.1-34.03-39.7-33.22Z"/>
      <path class="cls-1" d="M537.51,351.73c.34-.12,.68-.23,1.18-.4-.18-.53-.32-.96-.64-1.91-.55,.9-.84,1.38-1.14,1.86,.2,.15,.39,.3,.59,.44Z"/>
    </g>
  </g>
</svg>