<?xml version="1.0" encoding="UTF-8"?>
<svg id="_圖層_2" data-name="圖層 2" xmlns="http://www.w3.org/2000/svg" viewBox="0 0 648.36 705.61">
<style>
* {
    fill: white;
}
@media (prefers-color-scheme: light) {
  * {
    fill: #151515 !important;
  }
}
</style>
  <defs>
    <style>
      .cls-1 {
        fill: #fff;
      }
    </style>
  </defs>
  <g id="_圖層_1-2" data-name="圖層 1">
    <path class="cls-1" d="M647.16,135.96c-.6-2.37-1.42-4.65-2.41-6.81-.43-4.22-1.53-8.4-3.36-12.4l-.06-.14c-.63-1.58-1.32-3.07-2.03-4.48,.02-.46,.02-.92,.02-1.38v-5.76c0-3.03-.35-6.02-1.02-8.92-.02-.41-.06-.81-.1-1.22,.09-.83,.15-1.67,.19-2.51,.04-1.06,.03-2.12-.02-3.17,.02-.3,.06-.59,.08-.89,.16-2.82,.02-5.62-.41-8.36,.78-6.74-.19-13.61-2.83-19.93-1.13-4.22-2.95-8.2-5.37-11.78-4.43-12.79-15.13-22.41-28.32-25.47-2.94-.68-5.92-1.01-8.87-1.01-7.99,0-15.81,2.44-22.4,7h-.01c-1.12,.25-2.22,.54-3.3,.88-7.41-8.61-18.26-13.68-29.81-13.68h-4.1c-5.38,0-10.61,1.1-15.41,3.14-1.9,.29-3.56,.67-4.92,1.03-7.65,1.02-14.72,4.28-20.42,9.17-1.17,.05-2.33,.15-3.49,.3-4.93-1.92-10.19-3.01-15.59-3.17-.05-.05-.11-.09-.16-.14-6.91-6.13-13.73-8.84-17.01-10.15l-.26-.1c-1.32-.61-2.66-1.15-4.03-1.61-1.26-.56-2.56-1.07-3.9-1.51-4.29-1.53-8.72-2.26-13.09-2.27-5.55-5.19-12.54-8.71-20.16-10.03-2.24-.39-4.49-.58-6.72-.58-5.53,0-10.99,1.17-16.02,3.41-3.9,.55-7.66,1.68-11.17,3.32-2.59-.52-5.21-.79-7.84-.79-.47,0-.94,0-1.41,.03-.7-.04-1.42-.06-2.17-.06-2.56,0-5.12,.24-7.62,.7-2.52-.5-5.1-.76-7.7-.76-1.79,0-3.59,.12-5.4,.37-2.53,.35-6.49,1.17-10.91,3.09-1.69-.22-3.39-.33-5.12-.33-.34,0-.69,0-1.03,.01-1.2,.03-2.39,.12-3.57,.26-.16,0-.33-.02-.49-.02-1.64-.24-3.31-.37-4.99-.39-.2,0-.39,0-.59,0-3.17,0-6.3,.38-9.33,1.12-1.75-.9-3.57-1.67-5.45-2.3-2.9-.98-5.88-1.6-8.88-1.89-4.12-1.22-8.36-1.83-12.69-1.83-6.43,0-12.6,1.36-18.26,3.95-.94-.25-1.89-.47-2.84-.65-.21-.11-.43-.22-.64-.33-5.5-2.74-11.51-4.12-17.52-4.12-4.66,0-9.33,.83-13.79,2.49l-1.48,.55c-4.04,1.51-7.72,3.64-10.95,6.26-2.27,.62-4.5,1.45-6.66,2.48-2.56,1.23-4.96,2.72-7.17,4.44-3.61,1.22-7.09,2.92-10.43,5.09-3.83,1.69-7.82,4.15-11.59,7.73-1.43,.38-2.76,.8-3.95,1.23-6.11,1.12-11.91,3.68-16.87,7.49-1.62-.2-3.25-.3-4.89-.3-4.08,0-8.16,.63-12.11,1.91-.49,.02-.99,.05-1.47,.08-1.8-.34-3.87-.6-6.15-.68-.12-.01-.24-.03-.36-.04-2.12-.52-4.26-.86-6.44-1.03-4.07-1.36-8.28-2.03-12.46-2.03-1.94,0-3.88,.14-5.79,.43-.36,0-.73,.02-1.09,.03-4.45,.19-8.79,1.14-12.84,2.75-3.29-1.19-6.77-1.95-10.35-2.23-1.24-.1-2.49-.15-3.7-.15-6.68,0-13,1.47-18.63,4.16-3.48,.41-6.89,1.29-10.15,2.61-15.94,1.05-30.18,11.81-35.05,27.79-.19,.53-.42,1.19-.67,1.98-.89,1.26-1.71,2.58-2.45,3.94-.14,.15-.28,.29-.42,.44-5.77,3.64-10.54,8.76-13.78,14.9C-.21,104.14-1.28,114.64,1.55,124.41c-.15,1.18-.24,2.28-.29,3.28-.39,7.61,1.43,15.06,5.11,21.51,.29,1.26,.65,2.5,1.07,3.72-.02,2.53,.21,5.09,.7,7.64l2.64,13.87c-1.86,3.45-3.19,7.16-3.96,11C1.19,195.31,.06,207.24,3.94,218.12c2.66,7.46,7.47,13.8,13.64,18.37-.15,.81-.28,1.65-.38,2.51-1.92,7.82-1.39,16.1,1.57,23.68,.26,1.22,.57,2.42,.93,3.58-1.72,9.2-.1,18.78,4.65,26.97,.49,.85,1.01,1.69,1.55,2.51,.03,.8,.09,1.61,.17,2.41,.17,1.68,.45,3.34,.83,4.96v3.98c0,7.78,2.3,15.33,6.54,21.73,.59,2.11,1.34,4.16,2.25,6.11,.45,4.42,1.65,8.8,3.63,12.95,4.66,9.74,13.01,16.97,22.91,20.31,3.12,1.97,6.55,3.52,10.21,4.56,3.57,1.02,7.2,1.51,10.8,1.51,9.2,0,18.18-3.24,25.3-9.2,1.39-.71,2.85-1.53,4.35-2.48,.21-.13,.43-.25,.64-.37,.83-.48,1.86-1.07,3.04-1.8,1.66,.21,3.31,.31,4.96,.31,1.05,0,2.1-.04,3.14-.13,.46,.02,.92,.03,1.37,.03,1.3,.13,2.61,.2,3.92,.2,8.44,0,16.88-2.71,23.92-8.1,2.13-.48,4.21-1.14,6.21-1.96,.57-.03,1.13-.07,1.7-.12,.64,.03,1.28,.05,1.92,.05,.52,0,1.03,0,1.55-.03,2.79-.11,5.53-.52,8.2-1.2,5.13-.67,10.04-2.35,14.45-4.88,.39-.16,.78-.32,1.18-.5,1.45-.28,2.87-.62,4.25-1.03,.36,0,.72,.01,1.08,.01,4.69,0,9.38-.83,13.83-2.5,.81,.27,1.62,.5,2.44,.71,.31,8.97,3.6,17.18,8.94,23.66,2.62,3.73,5.88,7.02,9.69,9.68l3.66,2.55c1.91,1.33,3.92,2.48,6,3.44,2.76,3.92,6.26,7.51,10.59,10.46,.27,.41,.56,.81,.84,1.2,.43,2.44,1.12,4.98,2.13,7.61,.9,2.44,2.05,4.77,3.39,6.95-3.48,6.9-4.89,14.75-3.92,22.57l.11,.85c.12,.96,.28,1.9,.47,2.84-.99,4.15-1.56,9.29-.78,15.12,.1,5.22,1.24,10.45,3.44,15.35,1.17,4.75,3.25,9.29,6.16,13.38-1.38,13.99,4.84,27.84,16.55,36.06,1.26,1.95,2.7,3.78,4.3,5.49,.58,3.55,1.63,7.05,3.19,10.39l1.66,3.54c1.08,2.3,2.38,4.46,3.84,6.47-.28,2.43-.33,4.88-.15,7.31-.03,1.45,0,2.95,.12,4.5,.03,1.17,.12,2.33,.26,3.48-1.31,8.28,.08,16.69,3.83,24.02-1.68,2.2-2.91,4.14-3.79,5.54-.12,.2-.25,.4-.38,.59-8.37,11.82-9.48,27.11-3.32,39.85-.04,.7-.05,1.39-.05,2.09,0,2.72,.29,5.4,.83,8.01-1.38,9.19,.56,18.42,5.21,26.15,2.18,7.17,6.37,13.59,12.08,18.47,1.99,2.16,4.2,4.08,6.58,5.72,4.29,7.34,10.87,13.14,18.79,16.45l3.52,1.47c4.89,2.05,10.05,3.05,15.19,3.05,4.49,0,8.96-.77,13.21-2.28,1.72-.35,3.2-.71,4.39-1.01,.08-.02,.16-.04,.24-.06,2.07-.15,3.95-.43,5.66-.78,3.86-.22,7.59-.94,11.16-2.16,.72-.11,1.55-.24,2.44-.41l.22-.04c1.85-.34,5.09-.95,9-2.38,2.89-.11,5.75-.54,8.52-1.28,2.93-.35,5.8-.99,8.57-1.93,1.67-.21,3.12-.48,4.27-.71,6.55-.45,11.69-2.21,14.92-3.54,.05,0,.1-.01,.15-.02,1.59-.21,3.58-.48,5.88-.91,1.36-.26,2.73-.54,4.09-.83,.93-.2,2.13-.45,2.82-.57,3.23-.03,6.42-.46,9.5-1.26,3.62-.48,7.1-1.4,10.4-2.74,1.17-.19,2.53-.45,4.03-.79,3.14-.18,6.22-.72,9.19-1.59,2.49-.32,4.91-.84,7.26-1.55,1.45-.15,3.15-.38,4.98-.76,.18-.04,.37-.08,.55-.11,1.85-.09,3.43-.29,4.75-.49,3.97-.49,7.76-1.57,11.28-3.15,14.03-2.33,25.72-12.05,30.56-25.44,4.86-13.45,2.13-24.9,.77-29.88-.36-3.25-1.08-9.3-3.93-16.11-.03-.26-.07-.58-.11-.97-.45-4.34-1.31-8.02-1.88-10.45-.03-.12-.06-.26-.09-.39-.03-2.16-.25-4.3-.63-6.41,.09-.13,.19-.25,.29-.38,7.6-10.84,9.3-24.43,4.64-37.29-3.15-8.71-9.26-15.97-17.16-20.58-.09-.52-.19-1.05-.3-1.6-.15-2.84-.55-7.21-2.14-12.25-.4-2.41-1.07-5.29-2.23-8.39-.09-.41-.2-.86-.32-1.33-.22-2.49-.62-4.91-1.2-7.24-.45-3.78-1.16-6.91-1.68-9.2-.1-.44-.23-1.01-.31-1.37-.36-3.55-.94-6.58-1.38-8.84-.12-.62-.28-1.44-.35-1.89-.32-4.97-1.58-9.75-3.62-14.11-.3-1.36-.63-2.74-1-4.13-.03-.41-.07-.92-.1-1.33-.09-1.35-.21-3.03-.42-4.89-.45-4.15-1.55-8.12-3.19-11.8l-3.19-18.98c-.5-2.97-1.34-5.87-2.49-8.62-.36-2.23-.72-4.43-1.1-6.62-.54-3.19-1.12-6.37-1.72-9.67-.25-1.4-.51-2.82-.77-4.28-.42-2.33-1.04-4.61-1.86-6.8-.17-.74-.37-1.47-.58-2.19,.17-1.49,.27-3.01,.27-4.55v-.1l1.72-14.81c.03-.28,.06-.56,.09-.84,.28-1.82,.44-3.68,.49-5.57,.35-1.83,.56-3.68,.65-5.55,.3-2.02,.46-4.07,.45-6.13,0-.5-.01-1-.03-1.49,.44-2.19,.71-4.39,.79-6.58,1.13-4.6,1.48-9.29,1.05-13.93,.02-1.29,0-2.45,0-3.44,0-.66-.01-1.53,0-1.97,.04-.33,.12-.88,.18-1.31,.19-1.34,.43-3,.62-4.96,.06-.64,.11-1.25,.14-1.85,.02-.13,.04-.26,.06-.38,2.18-.55,4.33-1.29,6.41-2.22l5.42-2.42c2.23-.55,4.4-1.29,6.49-2.22,1.42-.14,2.83-.35,4.22-.63,.86,.4,1.74,.76,2.62,1.09,2.75,2.67,5.87,4.93,9.28,6.7l4.14,2.15c5.68,2.95,11.91,4.43,18.15,4.43,.76,0,1.52-.02,2.27-.07,1.07,.08,2.21,.12,3.41,.12,3.1,0,6.19-.32,9.18-.96,3.4-.72,6.33-1.59,8.67-2.28,.64-.19,1.29-.38,1.95-.57,14.94-4.21,25.98-16.8,28.25-32.1,.51-1.22,1.01-2.53,1.45-3.92,.17-.31,.36-.68,.52-.98,1.16-2.17,2.76-5.15,4.26-8.86,1.1-2.71,1.87-5.49,2.34-8.29,1-2.6,1.68-4.99,2.18-7.02,.92-2.09,1.65-4.25,2.18-6.44,1.57-3.07,2.65-6.1,3.36-8.98,3.72-3.19,6.82-7.05,9.13-11.39,2.6-3.82,4.46-8,5.57-12.34,2.01-5.41,2.81-11.13,2.38-16.81,.12-.48,.24-.97,.35-1.48,.4-1.84,.69-3.46,.91-4.76l.19-1.09c.39-2.17,.6-4.34,.63-6.5,.22-1.37,.37-2.76,.44-4.16,3.76-6.67,5.4-14.18,4.97-21.57,1.22-5.75,1.17-11.82-.34-17.81Z"/>
  </g>
</svg>