<?xml version="1.0" encoding="UTF-8"?>
<svg id="_圖層_2" data-name="圖層 2" xmlns="http://www.w3.org/2000/svg" viewBox="0 0 669.39 620">
  <g id="_圖層_1-2" data-name="圖層 1">
    <path fill="white" d="M1.55,133.07h0c6.23,74.77,77.44,126.54,150.49,109.41l346.13-84.35c9.07-2.21,17.82,4.66,17.82,14h0c0,6.6-4.49,12.36-10.89,13.97l-305.91,81.57c-17.12,4.32-29.12,19.71-29.12,37.37h0c0,17.22,11.43,32.35,27.99,37.07l294.05,88.34c11.98,3.6,17.21,17.65,10.49,28.2h0c-4.37,6.86-12.64,10.15-20.52,8.17l-332.48-83.64C82.24,366.22,14.58,409.72,2.03,478.03h0c-14.8,80.57,53.56,152.02,134.7,140.8l441.5-35.44c41.76-5.77,74.44-38.88,79.67-80.71h0c5.23-41.86-18.33-82.02-57.43-97.87l-187.96-82.51-2.96-11.83,162.33-49.91c56.12-14.2,95.94-63.99,97.46-121.85h0c1.85-70.42-53.05-129.35-123.43-132.47L131.82,.26C56.95-4.53-4.68,58.31,1.55,133.07Z"/>
  </g>
</svg>