<?xml version="1.0" encoding="UTF-8"?>
<svg id="_圖層_2" data-name="圖層 2" xmlns="http://www.w3.org/2000/svg" viewBox="0 0 622.54 670.93">
<style>
* {
    fill: white;
}
@media (prefers-color-scheme: light) {
  * {
    fill: #151515 !important;
  }
}
</style>
  <defs>
    <style>
      .cls-1 {
        fill: #fff;
      }
    </style>
  </defs>
  <g id="_圖層_1-2" data-name="圖層 1">
    <path class="cls-1" d="M615.29,562.1c0-.15,.02-.31,.03-.46,.46-11.24-3.8-22.16-11.73-30.13l-.4-.4c-1.67-1.66-3.48-3.15-5.38-4.49-.56-.78-1.14-1.56-1.77-2.34-1.04-2.06-2.25-4.03-3.62-5.88-.32-1.09-.69-2.17-1.1-3.23-1.79-4.59-4.04-8.74-6.75-12.46-.05-.1-.11-.2-.17-.3-1.98-4.86-4.7-9.43-8.09-13.6l-.98-5.37c-1.09-5.95-3.47-11.48-6.88-16.24-.4-1.32-.88-2.62-1.41-3.9-1.11-6.23-3.68-12.13-7.51-17.21-.58-.96-1.18-1.87-1.79-2.75-.5-1.86-1.14-3.7-1.91-5.49-.25-1.27-.55-2.53-.92-3.78-.22-.75-.44-1.43-.64-2.04-.49-2.83-1.22-5.44-2.08-7.81-.83-3.91-2.25-7.72-4.24-11.28-.2-.64-.41-1.28-.64-1.91-.24-3.38-.92-6.78-2.06-10.12-.85-2.75-3.08-9.28-8.68-15.72l-.07-.09c-.41-.81-.8-1.52-1.14-2.14-1.88-4.55-4.55-8.65-7.83-12.15-.99-1.41-2.06-2.75-3.21-4-.42-.69-.85-1.37-1.31-2.04-1.25-1.82-2.52-3.38-3.68-4.67-.31-.45-.63-.89-.96-1.32,1.74-2.78,3.13-5.75,4.15-8.86,.84-1.88,1.54-3.82,2.08-5.81,1.4-1.92,2.64-3.98,3.7-6.15l1.85-3.79c1.97-4.04,3.21-8.32,3.76-12.69,.55-2.17,.92-4.39,1.1-6.64,1.91-4.22,3.09-8.75,3.46-13.41,1.24-3.99,1.86-8.15,1.83-12.31,.05-1.34,.03-2.68-.05-4.02,0-1.04-.03-2.08-.11-3.11,.03-.58,.04-1.17,.04-1.76,1.44-6.35,1.63-11.88,1.76-15.65,.01-.45,.03-.9,.05-1.35,.12-2.88,.12-5.53,.1-7.91,.21-1.16,.36-2.34,.46-3.52,3.62-6.16,5.45-13.05,5.54-19.94,.07-.42,.14-.84,.2-1.28,.49-1.26,.93-2.56,1.29-3.88,.72-2.59,1.17-5.22,1.37-7.85,.03-.12,.06-.23,.09-.35,1-1.9,1.85-3.89,2.54-5.95,1.73-3.36,2.97-6.95,3.7-10.67,.6-2.34,1.26-5.72,1.39-9.76,4.22-4.73,7.22-10.33,8.85-16.32,2.04-3.65,3.36-7.27,4.18-10.68,1.64-2.2,3.04-4.57,4.2-7.06,1.52-1.31,2.96-2.74,4.3-4.29l4-4.66c4.42-5.14,7.47-11.32,8.88-17.94,.29-.7,.57-1.41,.82-2.13,2.66-6.58,3.56-12.6,3.43-17.92,1.91-4.22,3.78-9.72,4.41-16.25,.76-3.58,1.12-7.52,.92-11.86,0-.01,0-.02,.01-.03,3-4.95,4.86-10.45,5.54-16.08,.47-2.15,.74-4.24,.87-6.24,.07-.52,.12-1.04,.17-1.56,2.49-10.11,.92-20.53-3.92-29.26-.43-1.23-.93-2.46-1.49-3.66-5.87-12.74-17.87-21.4-31.55-23.15-4.87-2-10.09-3.05-15.37-3.05-2.86,0-5.74,.3-8.59,.92l-1.46,.32c-1.3,.28-2.57,.63-3.82,1.03-.04,0-.09-.01-.13-.02-2.27-.39-4.57-.59-6.87-.59-5,0-10.04,.93-14.85,2.83-2.66,.56-5.26,1.4-7.74,2.48-.11,0-.23,0-.34,0-6.32,0-12.46,1.48-17.97,4.22-1.6,.49-3.17,1.08-4.69,1.76-.95-.07-1.91-.1-2.87-.1-.86,0-1.73,.03-2.59,.08h-.01c-2.85,0-5.71,.3-8.54,.91-1,.22-1.98,.47-2.95,.75l-3.23-.81c-3.27-.82-6.56-1.21-9.81-1.21-3.41,0-6.78,.43-10.03,1.27-2.15,.19-4.28,.54-6.36,1.07-3.02-.71-6.12-1.07-9.25-1.07-.54,0-1.08,.01-1.62,.03-1.17-.1-2.35-.15-3.53-.15h-4.32c-6.38,0-12.67,1.51-18.35,4.41-6.21,3.17-20.52,12.61-23.02,33.13-.18,.99-.37,2.19-.52,3.53-3.42,6.31-5.15,13.48-4.87,20.79-.04,.67-.07,1.32-.08,1.95-.43,2.36-.67,4.79-.67,7.27v1.71c0,5.47,1.09,10.68,3.06,15.43,.03,2,.2,4.01,.52,5.99-.44,3.14-.52,6.36-.2,9.61,.21,2.18,.6,4.31,1.15,6.38-.29,2.81-.29,5.64,0,8.45-.17,1.2-.29,2.4-.35,3.62-.06,1.12-.07,2.24-.04,3.35-.1,.38-.19,.78-.28,1.19-2.2,4.37-3.62,9.17-4.11,14.18-.02,.05-.04,.09-.06,.13-3.14,7.01-4.17,14.64-3.16,22.02-5.38,1.13-10.52,3.35-15.06,6.57-3.85,1.7-7.44,4-10.63,6.86-.66,.32-1.3,.65-1.94,1.01-2.05-.32-4.13-.48-6.21-.48-6.27,0-12.58,1.46-18.37,4.42-4.32,2.21-8.13,5.13-11.31,8.58-1.38-.83-2.82-1.59-4.3-2.25-1.52-.93-3.11-1.77-4.76-2.5-.3-.13-.6-.26-.9-.39-.21-.18-.41-.36-.6-.53-1.79-2-3.65-3.75-5.52-5.28-1.89-2.91-4.15-5.57-6.73-7.91-1.38-1.4-2.87-2.71-4.48-3.92l-.74-.56c-4.87-9.28-13.23-16.42-23.35-19.7-1.42-1.19-2.93-2.29-4.51-3.27-3.59-3.17-9.46-7.45-17.74-9.89-.27-.26-.55-.52-.82-.77-1.02-1.28-2.11-2.5-3.27-3.67-2.04-3.74-4.66-7.12-7.73-10.02-2.45-3.46-5.44-6.54-8.88-9.1-1.56-1.98-3.29-3.81-5.19-5.47-1.58-1.82-3.46-3.69-5.73-5.49-.37-.66-.76-1.31-1.16-1.95-4.01-6.32-7.72-10.44-13.1-14.3-1.01-1.13-2.09-2.2-3.22-3.21-.62-.73-1.27-1.43-1.94-2.12-7.04-11.86-19.96-19.81-34.75-19.81h-.28c-.92,0-1.84,.04-2.75,.1-1.19-.1-2.37-.16-3.56-.16-2.18,0-4.36,.18-6.5,.53-.28,0-.57,0-.85,0-4.74,0-9.52,.84-14.1,2.54-5.1,1.9-9.68,4.78-13.52,8.38-1.62,.63-3.2,1.37-4.73,2.21-1.93,.55-3.83,1.25-5.69,2.09-5.11,1.63-10.71,4.5-15.98,9.43-.94,.75-1.86,1.54-2.73,2.37-2.8,1.39-5.42,3.09-7.81,5.07-5.18,3.56-11.32,9.12-16.05,17.45-1.41,1.62-2.69,3.37-3.84,5.24-1.96,3.17-3.44,6.55-4.44,10.04-.37,.62-.72,1.25-1.06,1.88-.74,1.2-1.42,2.44-2.04,3.72-.39,.82-.76,1.64-1.1,2.48-.29,.58-.55,1.18-.81,1.78-12.37,6.9-20.74,20.12-20.74,35.29v.85c0,4.07,.61,8,1.73,11.71l-.1,.09c-3.72,3.31-8.64,8.96-11.55,17.41-.3,.55-.58,1.1-.86,1.67-4.2,6.48-6.5,14.09-6.5,21.97v1.82c0,3.22,.38,6.35,1.09,9.35-1.55,2.48-3.05,5.43-4.3,8.9-4,11.19-2.8,23.32,2.78,33.31,.49,3.39,1.41,6.7,2.74,9.84,2.61,15.3,13.61,27.29,27.68,31.72,4.18,2.69,8.83,4.6,13.69,5.61,3.11,1.32,6.37,2.25,9.7,2.76,.29,.15,.58,.29,.85,.43,5.29,4.32,11.71,7.32,18.78,8.52l3.39,.58c3.87,1.23,7.9,1.87,11.94,1.89,1.96,.39,3.94,.63,5.92,.72,4.61,2.24,8.58,3.22,10.77,3.74,1.2,.35,2.2,.6,2.9,.78l.4,.1c1.21,.32,2.43,.58,3.65,.78,.17,.07,.33,.14,.5,.21,2.24,1.3,4.72,2.48,7.46,3.51,3.39,1.64,7,2.79,10.73,3.44,.79,.7,1.62,1.37,2.48,2.01,4.21,3.16,8.92,5.41,13.84,6.72,.92,.58,1.87,1.13,2.85,1.64,.89,.9,1.83,1.76,2.82,2.6,.45,.47,.92,.92,1.39,1.36,2.97,3.95,6.66,7.37,10.94,10.04,1.67,2.28,3.59,4.39,5.72,6.29,2.75,4.25,6.27,7.93,10.36,10.86,1.53,1.79,3.23,3.46,5.08,4.97l1.49,1.22c4.1,3.35,8.75,5.82,13.67,7.34,.19,.07,.39,.14,.58,.21,1.56,.77,3.16,1.44,4.8,2.01,.4,.23,.81,.46,1.22,.68,3.69,5.62,8.71,10.22,14.6,13.4,.25,.19,.5,.37,.73,.54,1.23,1.97,2.62,3.82,4.15,5.52,2.1,5.22,5.3,10.03,9.49,14.05,2.47,5.31,6.06,9.97,10.44,13.7,.07,.08,.14,.16,.22,.25,2.48,2.77,5.31,5.16,8.41,7.13,1.4,1.82,2.95,3.52,4.64,5.1,1.66,1.86,3.5,3.57,5.49,5.1,.54,.67,1.09,1.32,1.66,1.95,.08,.28,.17,.57,.26,.86,.65,8.44,3.94,16.45,9.36,22.89,1.08,1.8,2.56,4.05,4.55,6.43,.75,2.21,1.72,4.64,2.97,7.19,.67,1.81,1.47,3.58,2.39,5.28l4.35,8.02c1.71,3.16,3.82,6.04,6.25,8.6,1.11,1.77,2.36,3.45,3.73,5.02,.15,.69,.3,1.36,.46,2.01,.18,3.18,.73,6.36,1.67,9.46,.25,2.65,.76,5.29,1.54,7.88,1.63,9.57,5.74,16.54,7.95,20.24,.01,.04,.03,.07,.04,.11,.38,.94,.77,1.87,1.17,2.8,.54,1.22,1.13,2.42,1.78,3.57,1.25,2.64,2.78,5.12,4.56,7.41,3.26,6.97,8.44,12.85,14.93,16.97,.44,.41,1.56,1.44,1.73,1.6,1.79,2.6,3.87,4.97,6.17,7.06,.8,.86,1.62,1.67,2.45,2.43,2.58,3.69,5.78,6.96,9.51,9.65,1.86,2.58,4.75,6.06,8.92,9.3,.3,.33,.61,.67,.94,1l.2,.21c2.19,2.33,7.32,7.79,15.77,11.7,3.75,1.73,7.68,2.86,11.66,3.38,2.96,.73,6.39,1.24,10.21,1.24,.11,0,.24,0,.35,0,.35,0,.71-.01,1.06-.02,.15,0,.29,0,.44,0,3.79,0,7.58-.53,11.25-1.59,1.8-.34,3.58-.81,5.32-1.4,3.19-.48,6.35-1.34,9.39-2.6,.67-.09,1.34-.19,2.01-.31,.11,0,.22,0,.33,0,1.6,0,3.21-.1,4.82-.29,4.28-.51,8.39-1.7,12.21-3.48,1.68-.11,3.35-.32,4.97-.63,.99-.18,1.93-.4,2.82-.62l.61-.09,.61,.13c5.37,2.9,11.38,4.58,17.62,4.82,.51,.02,1.03,.03,1.54,.03,3.52,0,7-.47,10.35-1.36,3.08,.74,6.24,1.12,9.41,1.12,2.08,0,4.18-.16,6.25-.49,.81,.05,1.62,.07,2.43,.07,3.64,0,7.26-.5,10.77-1.47,3.62-.34,7.1-1.17,10.38-2.41,1.34-.38,2.66-.84,3.97-1.37,7.78-3.14,14.26-8.57,18.71-15.39,0,0,.01,0,.02,0,2.23,.38,4.48,.56,6.71,.56,6.21,0,12.33-1.43,17.88-4.17,3.37-.77,6.66-1.98,9.78-3.62,4.67-1.47,9.13-3.8,13.14-7.02l2.34-1.88c8.52-6.83,13.91-16.81,14.95-27.68l1.03-10.79c.92-9.6-1.64-19.12-7.07-26.91Z"/>
  </g>
</svg>