<?xml version="1.0" encoding="UTF-8"?>
<svg id="_圖層_2" data-name="圖層 2" xmlns="http://www.w3.org/2000/svg" viewBox="0 0 689.29 645.56">
<style>
* {
    fill: white;
}
@media (prefers-color-scheme: light) {
  * {
    fill: #151515 !important;
  }
}
</style>
  <defs>
    <style>
      .cls-1 {
        fill: #fff;
      }
    </style>
  </defs>
  <g id="_圖層_1-2" data-name="圖層 1">
    <g>
      <path class="cls-1" d="M5.43,225.72h0c10.13,18.76,32.02,27.84,52.46,21.78l329.07-97.59c43.57-12.92,66.35-60.75,48.91-102.73h0c-17.11-41.18-65.66-59.07-105.4-38.83L24.62,164.14c-22.56,11.49-31.23,39.31-19.19,61.58Z"/>
      <path class="cls-1" d="M166.02,615.4h0c-35,8.99-70.67-12.1-79.66-47.1l-40.68-158.41c-8.99-35,12.1-70.67,47.1-79.66h0c35-8.99,70.67,12.1,79.66,47.1l40.68,158.41c8.99,35-12.1,70.67-47.1,79.66Z"/>
      <path class="cls-1" d="M115.88,278.87h0c0,20.35,16.15,37.02,36.49,37.66l360.74,11.43-67.14,155.26,29.37,65.74-53.38-58.71c-22.65-24.92-62.67-21.98-81.44,5.98h0c-15.94,23.74-9.66,55.89,14.03,71.89l104.84,65.13c38.65,26.1,91.53,8.93,107.48-34.9l117.55-346.12c21.07-57.9-29.62-116.42-89.93-103.84L145.87,241.99c-17.47,3.64-29.99,19.04-29.99,36.89Z"/>
      <ellipse class="cls-1" cx="329.18" cy="403.5" rx="82.77" ry="69.94" transform="translate(-82.53 84.65) rotate(-13.04)"/>
    </g>
  </g>
</svg>